<svg xmlns="http://www.w3.org/2000/svg" xmlns:xlink="http://www.w3.org/1999/xlink" width="131" height="58" viewBox="0 0 131 58">
    <defs>
        <rect id="a" width="131" height="58" rx="29"/>
    </defs>
    <g fill="none" fill-rule="evenodd">
        <g>
            <use fill="#FFF" xlink:href="#a"/>
            <rect width="130" height="57" x=".5" y=".5" stroke="#DCDCDC" rx="28.5"/>
        </g>
        <path fill="#0595DA" d="M45.14 14.419c-2.325 0-3.98.9-4.996 2.922-1.43-2.134-2.633-2.922-5.146-2.922-2.25 0-3.898.642-5.109 2.648v-.719a1.94 1.94 0 0 0-1.935-1.93H25V31.42a1.93 1.93 0 0 0 1.931 1.929h2.952l.005-11.992a2.95 2.95 0 0 1 2.966-2.934 2.95 2.95 0 0 1 2.926 2.974v10.023a1.929 1.929 0 0 0 1.929 1.928h2.957V21.45a3.008 3.008 0 0 1 3.042-2.974 3.009 3.009 0 0 1 2.966 2.974v9.97a1.932 1.932 0 0 0 1.934 1.929h2.85V20.566c-.003-3.451-2.593-6.147-6.318-6.147M86.33 15.512a13.72 13.72 0 0 0-5.11-1.093c-8.024 0-9.48 4.254-9.48 9.455 0 5.208 1.456 9.459 9.48 9.459a23.84 23.84 0 0 0 5.465-.72.393.393 0 0 0 .365-.367c0-.144-.365-2.906-.365-2.906a.375.375 0 0 0-.356-.362 21.513 21.513 0 0 1-5.109.728c-4.196 0-5.109-2.513-5.109-5.829 0-3.304.551-5.818 5.11-5.818 2.546 0 5.288 1.095 5.466 1.095a.346.346 0 0 0 .364-.37c0-.147-.364-2.913-.364-2.913a.563.563 0 0 0-.357-.359M97.2 29.704c-3.64 0-4.741-2.189-4.741-5.83s1.102-5.818 4.741-5.818c3.64 0 4.744 2.184 4.744 5.818 0 3.634-1.097 5.83-4.744 5.83m7.015-15.285h-2.257v1.643c-1.18-1.13-3.054-1.643-4.757-1.643-5.468 0-9.115 2.908-9.115 9.456 0 6.547 3.647 9.458 9.115 9.458 2.672 0 4.14-1.036 4.768-1.658.133.96.952 1.674 1.92 1.674h2.257v-17.02a1.928 1.928 0 0 0-1.931-1.91M61.602 29.703v.002c-3.655 0-4.742-2.188-4.742-5.83 0-3.64 1.086-5.818 4.742-5.818 3.641 0 4.735 2.183 4.735 5.817 0 3.634-1.093 5.83-4.735 5.83m0-15.285c-5.472 0-9.12 2.909-9.12 9.456s3.65 9.458 9.12 9.458c5.469 0 9.106-2.907 9.106-9.46 0-6.55-3.64-9.454-9.106-9.454"/>
        <path fill="#474747" d="M103.495 41.35v-2.753h-.674v-1.03h.674v-1.436h1.22v1.437h1.43v1.03h-1.43v2.564a.576.576 0 0 0 .655.653c.262.001.521-.06.755-.178v.98a2.154 2.154 0 0 1-1.098.269c-.897 0-1.532-.387-1.532-1.536zm-6.502-3.783h1.219v.81c.353-.578.986-.929 1.663-.92 1.199 0 1.895.792 1.895 2.011v3.327h-1.22v-2.97c0-.811-.413-1.278-1.139-1.278-.705 0-1.2.485-1.2 1.297v2.952h-1.218v-5.23.001zm-2.442 2.248c-.08-.773-.544-1.377-1.349-1.377-.745 0-1.27.565-1.38 1.377h2.729zm-3.94.386v-.02c0-1.496 1.079-2.724 2.6-2.724 1.692 0 2.55 1.308 2.55 2.813 0 .11-.01.218-.02.337h-3.912c.08.78.752 1.361 1.532 1.328a1.948 1.948 0 0 0 1.44-.625l.716.625a2.709 2.709 0 0 1-2.177.98 2.631 2.631 0 0 1-2.729-2.714zm-9.286-2.634h1.219v.792c.35-.56.963-.901 1.623-.901a1.676 1.676 0 0 1 1.581.921 2.184 2.184 0 0 1 1.804-.921c1.16 0 1.863.723 1.863 2v3.338h-1.219v-2.972c0-.832-.392-1.277-1.078-1.277-.665 0-1.14.456-1.14 1.297v2.952H84.76v-2.982c0-.811-.403-1.267-1.078-1.267-.676 0-1.14.495-1.14 1.307v2.942h-1.216v-5.23.001zm-6.178 6.528l.413-.892c.218.124.464.191.715.197.343 0 .555-.148.755-.605l-2.216-5.229h1.3l1.512 3.883 1.38-3.883h1.27l-2.116 5.378c-.424 1.07-.897 1.466-1.754 1.466a2.525 2.525 0 0 1-1.26-.316zm-2.262-3.487a3.523 3.523 0 0 0-1.219-.208c-.766 0-1.219.307-1.219.81v.021c0 .495.453.773 1.028.773.806 0 1.41-.446 1.41-1.1v-.297zm-.03 2.188v-.643c-.43.5-1.065.777-1.723.752-1.007 0-1.894-.565-1.894-1.614v-.02c0-1.158.917-1.713 2.157-1.713.5-.009.996.065 1.47.217v-.098c0-.723-.462-1.119-1.309-1.119a3.76 3.76 0 0 0-1.522.327l-.333-.96a4.624 4.624 0 0 1 2.026-.437c1.572 0 2.338.811 2.338 2.21v3.1h-1.21v-.002zm-5.747-2.605v-.02c0-1.01-.695-1.674-1.52-1.674a1.589 1.589 0 0 0-1.554 1.622l.002.052v.02a1.584 1.584 0 0 0 1.488 1.672c.021.002.043.002.064.002.833 0 1.518-.644 1.518-1.674h.002zm-4.263-2.625h1.22v.872a2.135 2.135 0 0 1 1.804-.981c1.259 0 2.478.98 2.478 2.714v.02c0 1.733-1.21 2.714-2.478 2.714a2.179 2.179 0 0 1-1.804-.921v2.398h-1.22v-6.816zm-5.467 2.248c-.08-.772-.544-1.376-1.35-1.376-.746 0-1.27.565-1.38 1.376h2.73zm-3.94.387v-.02c0-1.496 1.079-2.724 2.6-2.724 1.692 0 2.55 1.308 2.55 2.813 0 .11-.01.218-.02.337h-3.911c.08.78.751 1.361 1.532 1.328a1.95 1.95 0 0 0 1.44-.625l.716.625a2.709 2.709 0 0 1-2.177.98 2.632 2.632 0 0 1-2.73-2.714zm-2.523-4.636h1.22v7.23h-1.22v-7.23zm-2.883 7.23h1.22v-5.229h-1.22v5.23zm-.049-6.03h1.31v-1.14h-1.31v1.14zM45.47 40.19v-.02c0-1.01-.695-1.674-1.521-1.674a1.588 1.588 0 0 0-1.553 1.622l.002.052v.02c0 1.01.725 1.674 1.55 1.674.837 0 1.522-.644 1.522-1.674zm-3.043 1.793v.811h-1.22v-7.23h1.22v2.873a2.136 2.136 0 0 1 1.804-.981c1.26 0 2.479.98 2.479 2.714v.02c0 1.733-1.21 2.714-2.479 2.714a2.179 2.179 0 0 1-1.804-.921zm-3.682-1.773v-.02a1.63 1.63 0 0 0-1.573-1.683l-.06-.001a1.582 1.582 0 0 0-1.601 1.664v.02a1.633 1.633 0 0 0 1.622 1.684 1.59 1.59 0 0 0 1.612-1.664zm-4.454 0v-.02a2.76 2.76 0 0 1 2.783-2.736l.059.002c1.633 0 2.832 1.218 2.832 2.714v.02c0 1.486-1.21 2.723-2.853 2.723-1.622 0-2.82-1.217-2.82-2.703zm-9.285-2.645h1.22v.792c.35-.56.962-.9 1.622-.901a1.678 1.678 0 0 1 1.582.922 2.183 2.183 0 0 1 1.803-.922c1.16 0 1.864.724 1.864 2v3.339h-1.22v-2.972c0-.832-.392-1.277-1.078-1.277-.665 0-1.139.456-1.139 1.297v2.952h-1.219v-2.982c0-.811-.403-1.267-1.078-1.267-.676 0-1.137.495-1.137 1.307v2.942h-1.22v-5.23z"/>
    </g>
</svg>
