<?xml version="1.0" ?><!-- Uploaded to: SVG Repo, www.svgrepo.com, Generator: SVG Repo Mixer Tools -->
<svg width="800px" height="800px" viewBox="0 0 64 64" data-name="Layer 1" id="Layer_1" xmlns="http://www.w3.org/2000/svg"><defs><style>.cls-1{fill:#0074ff;}.cls-2{fill:#ffb300;}</style></defs><title/><path class="cls-1" d="M23,55.5H11.6a2,2,0,0,1-2-2V9.5a2,2,0,0,1,2-2H22.1a2,2,0,0,1,2,2v3h11v-3a2,2,0,0,1,2-2H47.6a2,2,0,0,1,2,2V25.11a2,2,0,1,1-4,0V11.5H39.1v3a2,2,0,0,1-2,2h-15a2,2,0,0,1-2-2v-3H13.6v40H23a2,2,0,0,1,0,4Z"/><path class="cls-1" d="M37.1,16.5h-15a2,2,0,0,1-2-2V4.5a2,2,0,0,1,2-2h15a2,2,0,0,1,2,2v10A2,2,0,0,1,37.1,16.5Zm-13-4h11v-6h-11Z"/><path class="cls-1" d="M46.06,52.5h-8a2,2,0,0,1,0-4h8a2,2,0,0,1,0,4Z"/><path class="cls-1" d="M46.06,45.5h-8a2,2,0,0,1,0-4h8a2,2,0,0,1,0,4Z"/><path class="cls-2" d="M52.4,61.5H31.6a2,2,0,0,1-2-2v-26a2,2,0,0,1,2-2H52.4a2,2,0,0,1,2,2v26A2,2,0,0,1,52.4,61.5Zm-18.8-4H50.4v-22H33.6Z"/></svg>